<?xml version="1.0" encoding="utf-8"?><!-- Uploaded to: SVG Repo, www.svgrepo.com, Generator: SVG Repo Mixer Tools -->
<svg fill="#000000" width="800px" height="800px" viewBox="0 0 24 24" id="research" data-name="Flat Color" xmlns="http://www.w3.org/2000/svg" class="icon flat-color"><path id="primary" d="M19,2H8A2,2,0,0,0,6,4V20a2,2,0,0,0,2,2H20a2,2,0,0,0,2-2V4C22,3.25,21.61,2,19,2Z" style="fill: rgb(0, 0, 0);"></path><path id="secondary" d="M12,10a4,4,0,0,1-6.06,3.43L3.71,15.66a1,1,0,0,1-1.42,0,1,1,0,0,1,0-1.42L4.54,12A4,4,0,1,1,12,10Zm7,8V12a1,1,0,0,0-2,0v6a1,1,0,0,0,2,0Zm-4,0V15a1,1,0,0,0-2,0v3a1,1,0,0,0,2,0Z" style="fill: rgb(44, 169, 188);"></path></svg>